<?xml version="1.0" encoding="utf-8"?>
<!-- Svg Vector Icons : http://www.onlinewebfonts.com/icon -->
<!DOCTYPE svg PUBLIC "-//W3C//DTD SVG 1.1//EN" "http://www.w3.org/Graphics/SVG/1.1/DTD/svg11.dtd">
<svg version="1.1" xmlns="http://www.w3.org/2000/svg" xmlns:xlink="http://www.w3.org/1999/xlink" x="0px" y="0px" viewBox="0 0 1000 1000" enable-background="new 0 0 1000 1000" xml:space="preserve">
<metadata> Svg Vector Icons : http://www.onlinewebfonts.com/icon </metadata>
<g><g><path d="M522.1,20.9c-9.9-14.5-34.3-14.5-44.1,0c-12.7,18.8-310.8,461-310.8,636.3C167.2,840.6,316.5,990,500,990c183.5,0,332.8-149.4,332.8-332.8C832.9,481.9,534.7,39.6,522.1,20.9z M500,936.8c-154.2,0-279.6-125.3-279.6-279.6c0-121.6,185-428.8,279.6-573.2c94.6,144.4,279.6,451.5,279.6,573.2C779.6,811.4,654.1,936.8,500,936.8z M526.6,856.9c0,14.7-12,26.6-26.6,26.6c-124.8,0-226.3-101.5-226.3-226.3c0-14.7,12-26.6,26.6-26.6c14.6,0,26.6,12,26.6,26.6c0,95.5,77.6,173.1,173.1,173.1C514.7,830.2,526.6,842.1,526.6,856.9z"/></g><g></g><g></g><g></g><g></g><g></g><g></g><g></g><g></g><g></g><g></g><g></g><g></g><g></g><g></g><g></g></g>
</svg>