<?xml version="1.0" encoding="utf-8"?><svg xmlns="http://www.w3.org/2000/svg" xmlns:xlink="http://www.w3.org/1999/xlink" width="100%" height="100%"><g transform="translate(200,200)"><defs><clipPath id="clipWave-e3bg6"><path T="0.04174749998492189" transform="translate(-160.38837500527734, 0)" d="M-350,200L-341.25,200L-332.5,200L-323.75,200L-315,200L-306.25,200L-297.5,200L-288.75,200L-280,200L-271.25,200L-262.5,200L-253.75,200L-245,200L-236.25,200L-227.5,200L-218.75,200L-210,200L-201.25,200L-192.5,200L-183.75,200L-175,200L-166.25,200L-157.49999999999997,200L-148.75000000000003,200L-140,200L-131.25,200L-122.5,200L-113.74999999999997,200L-105.00000000000003,200L-96.25,200L-87.5,200L-78.75,200L-70,200L-61.25,200L-52.5,200L-43.75,200L-35,200L-26.25,200L-17.5,200L-8.75,200L0,200L8.749999999999943,200L17.5,200L26.25,200L35.00000000000006,200L43.75,200L52.49999999999994,200L61.25,200L70,200L78.75000000000006,200L87.5,200L96.24999999999994,200L105,200L113.75,200L122.50000000000006,200L131.25,200L139.99999999999994,200L148.75,200L157.5,200L166.25,200L175,200L183.75,200L192.5,200L201.25,200L210,200L218.75,200L227.5,200L236.25,200L245,200L253.75,200L262.5,200L271.25,200L280,200L288.75,200L297.5,200L306.25,200L315,200L323.75,200L332.5,200L341.25,200L350,200L350,39.81203635971107L341.25,40.647543923706905L332.5,41.401266186015306L323.75,41.99942356010979L315,42.383464234606464L306.25,42.51579563251687L297.5,42.383464234606464L288.75,41.99942356010979L280,41.401266186015306L271.25,40.647543923706905L262.5,39.81203635971107L253.75,38.97652879571524L245,38.22280653340681L236.25,37.624649159312355L227.5,37.24060848481568L218.75,37.108277086905275L210,37.24060848481568L201.25,37.624649159312355L192.5,38.22280653340681L183.75,38.97652879571524L175,39.81203635971107L166.25,40.647543923706905L157.5,41.401266186015306L148.75,41.99942356010979L139.99999999999994,42.383464234606464L131.25,42.51579563251687L122.50000000000006,42.383464234606464L113.75,41.99942356010979L105,41.401266186015306L96.24999999999994,40.647543923706905L87.5,39.81203635971107L78.75000000000006,38.97652879571524L70,38.22280653340681L61.25,37.624649159312355L52.49999999999994,37.24060848481568L43.75,37.108277086905275L35.00000000000006,37.24060848481568L26.25,37.624649159312355L17.5,38.22280653340681L8.749999999999943,38.97652879571524L0,39.81203635971107L-8.75,40.647543923706905L-17.5,41.401266186015306L-26.25,41.99942356010979L-35,42.383464234606464L-43.75,42.51579563251687L-52.5,42.383464234606464L-61.25,41.99942356010979L-70,41.401266186015306L-78.75,40.647543923706905L-87.5,39.81203635971107L-96.25,38.97652879571524L-105.00000000000003,38.22280653340681L-113.74999999999997,37.624649159312355L-122.5,37.24060848481568L-131.25,37.108277086905275L-140,37.24060848481568L-148.75000000000003,37.624649159312355L-157.49999999999997,38.22280653340681L-166.25,38.97652879571524L-175,39.81203635971107L-183.75,40.647543923706905L-192.5,41.401266186015306L-201.25,41.99942356010979L-210,42.383464234606464L-218.75,42.51579563251687L-227.5,42.383464234606464L-236.25,41.99942356010979L-245,41.401266186015306L-253.75,40.647543923706905L-262.5,39.81203635971107L-271.25,38.97652879571524L-280,38.22280653340681L-288.75,37.624649159312355L-297.5,37.24060848481568L-306.25,37.108277086905275L-315,37.24060848481568L-323.75,37.624649159312355L-332.5,38.22280653340681L-341.25,38.97652879571524L-350,39.81203635971107Z"></path></clipPath></defs><text class="text" transform="translate(0,0)" fill="rgb(68, 68, 68)" font-family="Arial" style="text-anchor: middle;"><tspan data-reactroot=""><tspan class="value" style="font-size:100px">39</tspan><tspan style="font-size:60px">%</tspan></tspan></text><g clip-path="url(#clipWave-e3bg6)"><circle class="wave" r="175" fill="url(#gradient-e3bg6)"></circle><text class="waveText" transform="translate(0,0)" fill="rgb(255, 255, 255)" font-family="Arial" style="text-anchor: middle;"><tspan data-reactroot=""><tspan class="value" style="font-size:100px">39</tspan><tspan style="font-size:60px">%</tspan></tspan></text></g><path class="circle" d="M1.2246467991473532e-14,-200A200,200,0,1,1,-1.2246467991473532e-14,200A200,200,0,1,1,1.2246467991473532e-14,-200M-3.3065463576978534e-14,-180A180,180,0,1,0,3.3065463576978534e-14,180A180,180,0,1,0,-3.3065463576978534e-14,-180Z" fill="rgb(146, 99, 169)"></path><circle r="200" fill="rgba(0, 0, 0, 0)" stroke="rgba(0, 0, 0, 0)" style="pointer-events: all;"></circle></g><defs><linearGradient id="gradient-e3bg6" x1="0%" x2="0%" y1="100%" y2="0%"><stop stop-color="rgb(122, 83, 141)" stop-opacity="1" offset="0%"></stop><stop stop-color="rgb(146, 99, 169)" stop-opacity="0.75" offset="50%"></stop><stop stop-color="rgb(175, 118, 202)" stop-opacity="0.5" offset="100%"></stop></linearGradient></defs></svg>